<svg width="586" height="309" viewBox="0 0 586 309" fill="none" xmlns="http://www.w3.org/2000/svg">
<rect width="586" height="309" fill="#ECEFF1"/>
<mask id="mask0" mask-type="alpha" maskUnits="userSpaceOnUse" x="0" y="-3" width="586" height="312">
<rect width="586" height="312" transform="matrix(-1 0 0 1 586 -3)" fill="#ECEFF1"/>
</mask>
<g mask="url(#mask0)">
<g filter="url(#filter0_f)">
<rect width="109.358" height="176.693" transform="matrix(-1 0 0 1 245.707 63.8416)" fill="#ECEFF1"/>
<path d="M218.845 73.3153L153.857 183.42L200.384 199.829L218.845 73.3153Z" fill="#4DD0E1"/>
<rect width="165.03" height="136.802" transform="matrix(-1 0 0 1 566.153 127.931)" fill="#ECEFF1"/>
<path d="M550.503 189.758L448.688 180.334L451.723 218.902L550.503 189.758Z" fill="#00ACC1"/>
<path d="M567.824 251.445C552.458 264.815 518.571 251.026 533.484 268.164C548.397 285.302 572.943 288.357 588.309 274.986C603.674 261.615 604.041 236.883 589.128 219.745C574.216 202.606 583.19 238.074 567.824 251.445Z" fill="#FFEB3B"/>
<rect width="21.363" height="21.363" transform="matrix(-1 0 0 1 338.281 220.504)" fill="#ECEFF1"/>
<circle r="10.6815" transform="matrix(-1 0 0 1 327.6 231.185)" fill="#005EEA"/>
<rect width="49.847" height="49.847" transform="matrix(-1 0 0 1 331.16 99.4468)" fill="#ECEFF1"/>
<circle r="24.9235" transform="matrix(-1 0 0 1 306.236 124.37)" fill="#FDD835"/>
<rect width="75.2678" height="75.7836" transform="matrix(-1 0 0 1 430.854 277.472)" fill="#ECEFF1"/>
<rect width="71.21" height="35.605" transform="matrix(-0.699826 -0.714313 -0.714313 0.699827 430.854 328.338)" fill="#EAA900"/>
<rect width="60.7728" height="61.1893" transform="matrix(-0.504969 0.863137 0.863137 0.504969 0.185303 111.37)" fill="#ECEFF1"/>
<rect width="57.4965" height="28.7483" transform="matrix(-0.969941 0.243341 0.243341 0.969941 35.6349 132.109)" fill="#EAA900"/>
<rect width="33.1415" height="41.0141" transform="matrix(-1 0 0 1 103.288 78.0834)" fill="#ECEFF1"/>
<rect width="21.363" height="35.605" transform="matrix(-0.927242 0.374463 0.374463 0.927242 89.9547 78.0834)" fill="#FFEB3B"/>
<rect width="63.9177" height="89.1234" transform="matrix(-1 0 0 1 373.886 -42.9735)" fill="#ECEFF1"/>
<rect width="85.4521" height="28.484" transform="matrix(0.450383 -0.892835 -0.892835 -0.450383 335.4 46.1497)" fill="#4DD0E1"/>
<rect width="85.4206" height="81.2765" transform="matrix(-1 0 0 1 616 85.2043)" fill="#ECEFF1"/>
<path d="M616 139.022C616 139.022 570.466 116.343 560.137 128.229C554.462 134.76 550.176 142.669 555.259 149.096C559.176 154.049 564.833 154.681 571.46 153.517C585.495 151.052 585.282 131.563 579.648 119.492C571.87 102.827 530.579 112.664 530.579 112.664" stroke="#00ACC1" stroke-width="1.2"/>
<rect width="42.726" height="64.0891" transform="matrix(-1 0 0 1 509.184 -14.4893)" fill="#ECEFF1"/>
<path d="M482.071 17.5553C482.071 35.253 453.704 49.5998 473.443 49.5998C493.183 49.5998 509.184 35.253 509.184 17.5553C509.184 -0.142437 493.183 -14.4893 473.443 -14.4893C453.704 -14.4893 482.071 -0.142437 482.071 17.5553Z" fill="#FFEB3B"/>
<rect width="42.726" height="64.0891" transform="matrix(-0.100144 -0.994973 -0.994973 0.100144 89.0454 241.652)" fill="#ECEFF1"/>
<path d="M65.9796 225.806C54.2404 226.988 42.8302 209.13 44.148 222.223C45.4658 235.317 56.0506 244.973 67.7898 243.791C79.5289 242.61 87.9771 231.038 86.6593 217.945C85.3414 204.851 77.7188 224.625 65.9796 225.806Z" fill="#005EEA"/>
<rect width="49.6555" height="74.4833" transform="matrix(-0.750835 -0.66049 -0.66049 0.750835 603 39.797)" fill="#ECEFF1"/>
<path d="M570.828 44.5633C561.772 54.8588 537.928 48.6887 549.411 58.79C560.894 68.8914 577.545 68.734 586.602 58.4386C595.658 48.1431 593.691 31.6083 582.208 21.5069C570.725 11.4056 579.885 34.2679 570.828 44.5633Z" fill="#005EEA"/>
<rect width="71.21" height="71.21" transform="matrix(-1 0 0 1 210.103 256.109)" fill="#ECEFF1"/>
<path d="M174.498 256.109L166.504 280.711L140.635 280.711L161.563 295.916L153.57 320.519L174.498 305.314L195.426 320.519L187.432 295.916L208.36 280.711L182.492 280.711L174.498 256.109Z" fill="#FFEB3B"/>
<rect width="82.5363" height="61.9922" transform="matrix(-1 0 0 1 245.707 -14.4893)" fill="#ECEFF1"/>
<path d="M233.792 44.7263L230.246 14.1397L205.524 29.8122L202.706 4.15342L180.156 19.6872L173.133 -8.05205" stroke="#EAA900"/>
<rect width="82.5363" height="61.9922" transform="matrix(-0.645334 0.7639 0.7639 0.645334 74.644 246)" fill="#ECEFF1"/>
<path d="M112.19 293.316L86.536 276.286L82.5546 305.285L61.1352 290.879L58.4494 318.129L32.7272 305.593" stroke="#EAA900"/>
<rect width="49.847" height="42.726" transform="matrix(-1 0 0 1 459.338 234.746)" fill="#ECEFF1"/>
<path d="M458.754 277.472C458.754 277.472 462.22 256.879 452.272 252.775C443.914 249.327 436.669 264.576 429.801 259.047C422.845 253.447 440.21 244.576 434.555 237.879C428.603 230.83 409.491 237.879 409.491 237.879" stroke="#005EEA" stroke-width="1.2"/>
<rect width="42.726" height="42.726" transform="matrix(-1 0 0 1 452.217 135.052)" fill="#ECEFF1"/>
<path d="M430.854 135.052L426.057 149.813H410.536L423.093 158.936L418.297 173.698L430.854 164.574L443.411 173.698L438.614 158.936L451.171 149.813H435.65L430.854 135.052Z" fill="#EAD300"/>
<rect width="85.4521" height="142.42" transform="matrix(-0.414529 -0.910036 -0.910036 0.414529 100 43.7645)" fill="#ECEFF1"/>
<path d="M84.3498 27.828L-17.4645 18.4033L-14.43 56.9715L84.3498 27.828Z" fill="#00ACC1"/>
</g>
</g>
<rect width="394.741" height="285.637" transform="matrix(0.994908 0.100788 0.100788 -0.994908 77.6763 263.521)" fill="white"/>
<path d="M256.5 133C241.833 127.167 209.7 120.7 198.5 141.5C187.3 162.3 192 203.5 213 223.5C235.5 240 285.6 256.6 320 247C354.4 237.4 360 187 347 167.5" stroke="#4DD0E1" stroke-opacity="0.35" stroke-width="4"/>
<path d="M277.784 107.403C276.77 111.82 274.795 115.477 272.525 117.836C270.223 120.228 267.903 121.037 266.03 120.607C264.158 120.177 262.423 118.436 261.396 115.279C260.383 112.167 260.201 108.015 261.216 103.597C262.23 99.1801 264.205 95.523 266.475 93.1645C268.777 90.7726 271.097 89.9634 272.97 90.3934C274.842 90.8233 276.577 92.5641 277.604 95.7206C278.617 98.833 278.799 102.985 277.784 107.403Z" stroke="#4DD0E1" stroke-opacity="0.35" stroke-width="4"/>
<path d="M240.5 127.5C242.833 106.167 252.8 65.3001 274 72.5001C295.2 79.7001 288.833 120.5 283 140" stroke="#4DD0E1" stroke-opacity="0.35" stroke-width="4"/>
<path d="M321.435 116.403C320.421 120.82 318.445 124.477 316.176 126.836C313.874 129.228 311.553 130.037 309.681 129.607C307.809 129.177 306.074 127.436 305.046 124.279C304.033 121.167 303.852 117.015 304.866 112.597C305.881 108.18 307.856 104.523 310.126 102.164C312.427 99.7726 314.748 98.9634 316.62 99.3934C318.493 99.8233 320.228 101.564 321.255 104.721C322.268 107.833 322.45 111.985 321.435 116.403Z" stroke="#4DD0E1" stroke-opacity="0.35" stroke-width="4"/>
<path d="M294 184.5L288.5 224M288.5 224C277 225.5 253.8 223.7 253 204.5M288.5 224C296.333 230.833 315.5 232 317.5 220.5" stroke="#4DD0E1" stroke-opacity="0.35" stroke-width="4"/>
<path d="M217.5 127.5L229.5 61.5001C223.5 55.1668 209.4 42.3001 201 41.5001C190.5 40.5001 235.867 21.4113 244 37.5001C244.353 38.1979 312.972 52.986 337.5 52.5C346 47.1667 379.5 43.4066 379.5 55.5C379.5 56.5 362 66.5 352.5 72L337.5 157.5" stroke="#4DD0E1" stroke-opacity="0.35" stroke-width="4"/>
<path d="M252 131.224C252 131.224 309.323 143.452 310.105 161.581C310.535 171.54 308.723 181.746 299.53 183.892C292.443 185.547 286.891 182.057 281.751 176.252C270.868 163.96 285.045 146.542 298.785 139.703C317.756 130.261 347.921 168.758 347.921 168.758" stroke="#00ACC1" stroke-width="5"/>
<defs>
<filter id="filter0_f" x="-85.0298" y="-62.9738" width="721.296" height="436.229" filterUnits="userSpaceOnUse" color-interpolation-filters="sRGB">
<feFlood flood-opacity="0" result="BackgroundImageFix"/>
<feBlend mode="normal" in="SourceGraphic" in2="BackgroundImageFix" result="shape"/>
<feGaussianBlur stdDeviation="10" result="effect1_foregroundBlur"/>
</filter>
</defs>
</svg>
