<svg width="586" height="312" viewBox="0 0 586 312" fill="none" xmlns="http://www.w3.org/2000/svg">
<rect width="586" height="333" transform="translate(0 -21)" fill="#ECEFF1"/>
<mask id="mask0" mask-type="alpha" maskUnits="userSpaceOnUse" x="0" y="0" width="586" height="312">
<rect width="586" height="312" fill="#C4C4C4"/>
</mask>
<g mask="url(#mask0)">
<g filter="url(#filter0_f)">
<path d="M367.155 76.3153L432.143 186.42L385.616 202.829L367.155 76.3153Z" fill="#4DD0E1"/>
<path d="M35.4972 192.758L137.312 183.334L134.277 221.902L35.4972 192.758Z" fill="#00ACC1"/>
<path d="M18.176 254.445C33.5417 267.815 67.4289 254.026 52.516 271.164C37.603 288.302 13.0573 291.357 -2.30854 277.986C-17.6743 264.615 -18.0414 239.883 -3.12849 222.745C11.7845 205.606 2.81016 241.074 18.176 254.445Z" fill="#FFEB3B"/>
<circle cx="258.4" cy="234.185" r="10.6815" fill="#005EEA"/>
<circle cx="279.764" cy="127.37" r="24.9235" fill="#FDD835"/>
<rect x="155.146" y="331.338" width="71.21" height="35.605" transform="rotate(-45.5869 155.146 331.338)" fill="#EAA900"/>
<rect x="550.365" y="135.109" width="57.4965" height="28.7483" transform="rotate(14.0838 550.365 135.109)" fill="#EAA900"/>
<rect x="496.045" y="81.0834" width="21.363" height="35.605" transform="rotate(21.9911 496.045 81.0834)" fill="#FFEB3B"/>
<rect x="250.6" y="49.1497" width="85.4521" height="28.484" transform="rotate(-116.768 250.6 49.1497)" fill="#4DD0E1"/>
<path d="M-29.9997 142.022C-29.9997 142.022 15.5339 119.343 25.8634 131.229C31.5382 137.76 35.8237 145.669 30.7413 152.096C26.8236 157.049 21.1673 157.681 14.5398 156.517C0.505297 154.052 0.718178 134.563 6.35191 122.492C14.1303 105.827 55.4209 115.664 55.4209 115.664" stroke="#00ACC1" stroke-width="1.2"/>
<path d="M103.929 20.5553C103.929 38.253 132.296 52.5998 112.557 52.5998C92.8174 52.5998 76.8157 38.253 76.8157 20.5553C76.8157 2.85756 92.8174 -11.4893 112.557 -11.4893C132.296 -11.4893 103.929 2.85756 103.929 20.5553Z" fill="#FFEB3B"/>
<path d="M520.02 228.806C531.76 229.988 543.17 212.13 541.852 225.223C540.534 238.317 529.949 247.973 518.21 246.791C506.471 245.61 498.023 234.038 499.341 220.945C500.659 207.851 508.281 227.625 520.02 228.806Z" fill="#005EEA"/>
<path d="M15.1716 47.5633C24.2283 57.8588 48.0719 51.6887 36.5889 61.79C25.1058 71.8914 8.45512 71.734 -0.601516 61.4386C-9.65815 51.1431 -7.69116 34.6083 3.79189 24.5069C15.2749 14.4056 6.11501 37.2679 15.1716 47.5633Z" fill="#005EEA"/>
<path d="M411.502 259.109L419.496 283.711L445.365 283.711L424.437 298.916L432.43 323.519L411.502 308.314L390.574 323.519L398.568 298.916L377.64 283.711L403.508 283.711L411.502 259.109Z" fill="#FFEB3B"/>
<path d="M352.208 47.7263L355.754 17.1397L380.476 32.8122L383.294 7.15342L405.844 22.6872L412.867 -5.05205" stroke="#EAA900"/>
<path d="M473.81 296.316L499.464 279.286L503.445 308.285L524.865 293.879L527.551 321.129L553.273 308.593" stroke="#EAA900"/>
<path d="M127.246 280.472C127.246 280.472 123.78 259.879 133.728 255.775C142.086 252.327 149.331 267.576 156.199 262.047C163.155 256.447 145.79 247.576 151.445 240.879C157.397 233.83 176.509 240.879 176.509 240.879" stroke="#005EEA" stroke-width="1.2"/>
<path d="M155.146 138.052L159.943 152.813H175.464L162.907 161.936L167.703 176.698L155.146 167.574L142.589 176.698L147.386 161.936L134.829 152.813H150.35L155.146 138.052Z" fill="#EAD300"/>
<path d="M501.65 30.828L603.464 21.4033L600.43 59.9715L501.65 30.828Z" fill="#00ACC1"/>
</g>
</g>
<rect width="394.741" height="285.637" transform="translate(77.6763 19.123) rotate(-5.78455)" fill="white"/>
<path opacity="0.3" d="M284.518 246.349C366.982 237.995 433.063 223.639 432.116 214.283C431.168 204.928 363.55 204.117 281.086 212.47C198.623 220.824 132.541 235.18 133.489 244.536C134.436 253.891 202.055 254.702 284.518 246.349Z" fill="#E6E6E6"/>
<path d="M168.828 138.468C168.828 138.468 147.718 151.339 147.304 176.113C146.889 200.886 143.503 248.987 203.414 240.194C263.324 231.402 291.365 225.171 272.517 180.636C253.67 136.102 168.828 138.468 168.828 138.468Z" fill="#FFEB3B"/>
<path opacity="0.09" d="M167.844 151.415C167.572 154.932 168.363 158.45 170.115 161.513C171.868 164.575 174.5 167.041 177.671 168.589C186.381 173.144 200.897 190.996 211.617 199.681C213.289 201.033 214.672 202.709 215.683 204.608C216.693 206.506 217.311 208.589 217.499 210.732C217.675 212.476 218.578 214.336 221.07 215.989C228.4 220.836 257.089 220.72 271.252 202.087C285.415 183.453 263.61 177.148 263.61 177.148L189.953 146.432L167.844 151.415Z" fill="black"/>
<path d="M330.644 219.116C330.644 219.116 332.507 222.736 336.304 223.171C340.101 223.605 342.584 228.001 334.396 228.125C326.207 228.25 321.871 229.927 322.589 225.35C323.306 220.773 322.71 220.158 322.71 220.158L330.644 219.116Z" fill="#F4A28C"/>
<path d="M275.809 221.5C275.809 221.5 275.589 225.531 278.618 227.881C281.647 230.231 281.56 235.202 274.473 231.158C267.386 227.114 262.782 226.333 265.726 222.759C268.669 219.185 268.47 218.348 268.47 218.348L275.809 221.5Z" fill="#F4A28C"/>
<path d="M277.185 164.365C277.185 164.365 326.878 159.845 332.393 219.081L320.884 222.257C320.884 222.257 312.299 159.979 250.804 196.292L251.676 171.329L277.185 164.365Z" fill="#24285B"/>
<path opacity="0.09" d="M277.185 164.365C277.185 164.365 326.878 159.845 332.393 219.081L320.884 222.257C320.884 222.257 312.299 159.979 250.804 196.292L251.676 171.329L277.185 164.365Z" fill="black"/>
<path d="M275.559 109.486L279.985 110.2L276.586 107.211L275.559 109.486Z" fill="#FFD200"/>
<path d="M210.81 145.643C210.81 145.643 221.586 166.454 242.141 160.515C262.695 154.576 266.204 109.853 266.204 109.853C266.204 109.853 273.937 103.632 269.322 98.0332C264.706 92.4345 259.507 106.084 259.507 106.084C259.507 106.084 254.233 144.006 233.49 133.984L210.81 145.643Z" fill="#F4A28C"/>
<path opacity="0.09" d="M210.81 145.643C210.81 145.643 221.586 166.454 242.141 160.515C262.695 154.576 266.204 109.853 266.204 109.853C266.204 109.853 273.937 103.632 269.322 98.0332C264.706 92.4345 259.507 106.084 259.507 106.084C259.507 106.084 254.233 144.006 233.49 133.984L210.81 145.643Z" fill="black"/>
<path d="M206.612 101.577L211.234 102.061C211.234 102.061 248.138 117.502 243.558 137.174C238.978 156.846 255.016 173.458 255.016 173.458L226.768 197.956C226.768 197.956 185.039 182.27 185.488 127.372C185.488 127.372 185.689 101.801 206.612 101.577Z" fill="#68E1FD"/>
<path d="M288.087 104.167L282.072 101.99L263.485 153.334L269.5 155.51L288.087 104.167Z" fill="#E6E6E6"/>
<path opacity="0.58" d="M380.877 210.046C380.877 210.046 370.955 208.385 367.942 199.615C367.942 199.615 382.599 195.073 384.588 210.47L380.877 210.046Z" fill="#68E1FD"/>
<path opacity="0.73" d="M381.942 208.986C381.942 208.986 374.111 199.009 379.04 188.434C379.04 188.434 391.152 194.502 387.46 208.456L381.942 208.986Z" fill="#68E1FD"/>
<path d="M383.677 208.81C383.677 208.81 386.1 197.185 396.661 193.963C396.661 193.963 399.429 201.072 391.043 208.093L383.677 208.81Z" fill="#68E1FD"/>
<path d="M376.643 209.247L379.961 222.443L392.299 221.241L392.764 207.68L376.643 209.247Z" fill="#24285B"/>
<path opacity="0.66" d="M341.056 25.7998L272.623 32.7324L277.476 80.637L345.909 73.7044L341.056 25.7998Z" fill="#E6E6E6"/>
<path opacity="0.43" d="M409.254 86.6858L347.449 92.9469L351.832 136.214L413.638 129.953L409.254 86.6858Z" fill="#E6E6E6"/>
<path d="M292.934 53.1683C297.345 52.7215 300.558 48.7847 300.112 44.3752C299.665 39.9657 295.727 36.7533 291.317 37.2001C286.906 37.6469 283.693 41.5838 284.139 45.9932C284.586 50.4027 288.524 53.6151 292.934 53.1683Z" fill="#E6E6E6"/>
<path opacity="0.45" d="M331.69 34.3291L309.203 36.6072L312.366 67.8366L334.854 65.5585L331.69 34.3291Z" fill="#C1C1C1"/>
<path d="M302.376 58.2684L286.932 59.833L287.993 70.3057L303.437 68.7411L302.376 58.2684Z" fill="#C1C1C1"/>
<path d="M202.537 77.8961L198.487 100.733L211.234 102.061L209.068 84.9101L202.537 77.8961Z" fill="#F4A28C"/>
<path opacity="0.31" d="M209.703 88.6454C208.128 88.2081 206.715 87.3222 205.635 86.0958C205.635 86.0958 205.741 90.3419 210.308 94.6122L209.703 88.6454Z" fill="#CE8172"/>
<path d="M215.534 77.2841C215.534 77.2841 215.623 84.3603 214.087 88.9441C213.939 89.3908 213.703 89.8036 213.394 90.1583C213.085 90.5131 212.708 90.8028 212.286 91.0104C211.864 91.2181 211.404 91.3396 210.934 91.3679C210.465 91.3961 209.994 91.3306 209.55 91.175C207.249 90.3701 204.375 88.6138 203.868 84.8274L202.218 78.5093C202.023 77.209 202.235 75.88 202.825 74.705C203.416 73.53 204.356 72.5666 205.516 71.9471C209.725 69.3019 215.693 72.9255 215.534 77.2841Z" fill="#F4A28C"/>
<path d="M207.579 82.7182C207.579 82.7182 207.732 79.9982 205.67 80.0546C203.609 80.1111 203.369 84.0399 206.132 84.6075L207.579 82.7182Z" fill="#F4A28C"/>
<path d="M215.352 81.6927L217.119 84.5611C217.219 84.7243 217.276 84.9101 217.285 85.1013C217.294 85.2925 217.255 85.4829 217.171 85.6547C217.086 85.8266 216.96 85.9745 216.804 86.0846C216.647 86.1947 216.465 86.2635 216.275 86.2846L213.54 86.5616L215.352 81.6927Z" fill="#F4A28C"/>
<path d="M276.591 107.209L253.79 96.9579L252.768 99.2305L275.568 109.482L276.591 107.209Z" fill="#24285B"/>
<path opacity="0.18" d="M232.551 185.456L226.768 197.956C226.768 197.956 200.23 188.264 189.619 155.837C179.009 123.409 204.239 133.91 204.239 133.91L232.551 185.456Z" fill="black"/>
<path d="M226.768 197.956C226.768 197.956 245.369 147.808 280.047 144.476C314.725 141.144 277.485 222.615 277.485 222.615L265.586 219.126C265.586 219.126 279.216 184.415 273.821 174.229C268.427 164.043 269.25 237.991 226.768 197.956Z" fill="#24285B"/>
<path d="M197.115 105.243C197.115 105.243 207.008 98.8987 213.396 109.108C219.783 119.317 220.288 165.957 242.04 166.201C263.793 166.445 272.433 142.943 272.433 142.943C272.433 142.943 273.251 133.337 276.034 131.474C278.817 129.612 282.414 139.256 277.466 145.614C277.466 145.614 271.59 182.197 241.555 186.049C211.521 189.901 169.896 132.646 197.115 105.243Z" fill="#F4A28C"/>
<path d="M214.655 68.1358C214.655 68.1358 222.327 75.5009 213.625 78.087C204.923 80.6732 203.256 82.4515 205.013 91.3394C206.771 100.227 211.125 108.138 199.928 114.957C188.731 121.777 199.806 130.207 198.755 141.455C197.704 152.704 188.132 161.368 174.122 155.188C160.113 149.008 149.988 130.587 163.02 117.62C176.052 104.653 193.626 100.045 191.743 81.456C189.86 62.8673 204.604 60.4024 214.655 68.1358Z" fill="#24285B"/>
<path opacity="0.43" d="M370.301 122.667C375.582 122.133 379.429 117.42 378.894 112.141C378.359 106.862 373.645 103.016 368.365 103.551C363.085 104.086 359.238 108.799 359.772 114.078C360.307 119.357 365.021 123.202 370.301 122.667Z" fill="#C1C1C1"/>
<path opacity="0.43" d="M383.322 96.8932L366.699 98.5771L368.383 115.196L385.005 113.512L383.322 96.8932Z" fill="#C1C1C1"/>
<path opacity="0.43" d="M401.152 95.0871L388.753 96.3431L391.543 123.887L403.942 122.631L401.152 95.0871Z" fill="#C1C1C1"/>
<path d="M279.69 144.757L270.567 142.299L269.179 147.449L278.302 149.908L279.69 144.757Z" fill="#68E1FD"/>
<path opacity="0.44" d="M279.69 144.757L270.567 142.299L269.179 147.449L278.302 149.908L279.69 144.757Z" fill="white"/>
<defs>
<filter id="filter0_f" x="-50.2666" y="-59.9738" width="721.296" height="436.229" filterUnits="userSpaceOnUse" color-interpolation-filters="sRGB">
<feFlood flood-opacity="0" result="BackgroundImageFix"/>
<feBlend mode="normal" in="SourceGraphic" in2="BackgroundImageFix" result="shape"/>
<feGaussianBlur stdDeviation="10" result="effect1_foregroundBlur"/>
</filter>
</defs>
</svg>
